<mxfile host="65bd71144e">
    <diagram id="nHD_Gq8wWqjprAnxEH-Q" name="ページ1">
        <mxGraphModel dx="787" dy="1636" grid="1" gridSize="10" guides="1" tooltips="1" connect="1" arrows="1" fold="1" page="1" pageScale="1" pageWidth="827" pageHeight="1169" math="0" shadow="0">
            <root>
                <mxCell id="0"/>
                <mxCell id="1" parent="0"/>
                <mxCell id="11" value="" style="rounded=0;whiteSpace=wrap;html=1;fontColor=#000000;" parent="1" vertex="1">
                    <mxGeometry x="80" y="-220" width="400" height="770" as="geometry"/>
                </mxCell>
                <mxCell id="12" value="&lt;font color=&quot;#000000&quot;&gt;　動的小説&lt;/font&gt;" style="rounded=0;whiteSpace=wrap;html=1;fillColor=#b1ddf0;strokeColor=#10739e;align=left;" parent="1" vertex="1">
                    <mxGeometry x="80" y="-220" width="400" height="30" as="geometry"/>
                </mxCell>
                <mxCell id="13" value="&lt;font&gt;ユーザ名&lt;br&gt;&lt;/font&gt;" style="rounded=0;whiteSpace=wrap;html=1;fillColor=#d5e8d4;strokeColor=#82b366;fontColor=#000000;" parent="1" vertex="1">
                    <mxGeometry x="360" y="-220" width="120" height="30" as="geometry"/>
                </mxCell>
                <mxCell id="19" value="&lt;font color=&quot;#000000&quot;&gt;クリエイター系機能&lt;/font&gt;" style="rounded=0;whiteSpace=wrap;html=1;fillColor=#b1ddf0;strokeColor=#10739e;" parent="1" vertex="1">
                    <mxGeometry x="120" y="240" width="120" height="30" as="geometry"/>
                </mxCell>
                <mxCell id="20" value="&lt;font color=&quot;#000000&quot;&gt;パーツ登録&lt;/font&gt;" style="rounded=0;whiteSpace=wrap;html=1;fillColor=#b1ddf0;strokeColor=#10739e;" parent="1" vertex="1">
                    <mxGeometry x="144" y="330" width="306" height="30" as="geometry"/>
                </mxCell>
                <mxCell id="21" value="&lt;font color=&quot;#000000&quot;&gt;グループ編集&lt;/font&gt;" style="rounded=0;whiteSpace=wrap;html=1;fillColor=#b1ddf0;strokeColor=#10739e;" parent="1" vertex="1">
                    <mxGeometry x="144" y="370" width="306" height="30" as="geometry"/>
                </mxCell>
                <mxCell id="22" value="&lt;font color=&quot;#000000&quot;&gt;パレット追加&lt;/font&gt;" style="rounded=0;whiteSpace=wrap;html=1;fillColor=#b1ddf0;strokeColor=#10739e;" parent="1" vertex="1">
                    <mxGeometry x="144" y="410" width="306" height="30" as="geometry"/>
                </mxCell>
                <mxCell id="24" value="&lt;font color=&quot;#000000&quot;&gt;作品作成&lt;/font&gt;" style="rounded=0;whiteSpace=wrap;html=1;fillColor=#b1ddf0;strokeColor=#10739e;" parent="1" vertex="1">
                    <mxGeometry x="144" y="290" width="306" height="30" as="geometry"/>
                </mxCell>
                <mxCell id="25" value="" style="rounded=0;whiteSpace=wrap;html=1;fontColor=#000000;" parent="1" vertex="1">
                    <mxGeometry x="120" y="850" width="400" height="280" as="geometry"/>
                </mxCell>
                <mxCell id="26" value="&lt;font color=&quot;#000000&quot;&gt;　動的小説&lt;/font&gt;" style="rounded=0;whiteSpace=wrap;html=1;fillColor=#b1ddf0;strokeColor=#10739e;align=left;" parent="1" vertex="1">
                    <mxGeometry x="120" y="850" width="400" height="30" as="geometry"/>
                </mxCell>
                <mxCell id="39" value="" style="rounded=0;whiteSpace=wrap;html=1;fillColor=#b1ddf0;strokeColor=#10739e;fontColor=#000000;" parent="1" vertex="1">
                    <mxGeometry x="168" y="950" width="80" height="80" as="geometry"/>
                </mxCell>
                <mxCell id="42" value="&lt;font color=&quot;#000000&quot;&gt;&lt;br&gt;&lt;/font&gt;" style="rounded=1;whiteSpace=wrap;html=1;fillColor=#fad7ac;strokeColor=#b46504;" parent="1" vertex="1">
                    <mxGeometry x="270" y="950" width="220" height="80" as="geometry"/>
                </mxCell>
                <mxCell id="48" value="表示設定" style="rounded=0;whiteSpace=wrap;html=1;fillColor=#b1ddf0;strokeColor=#10739e;fontColor=#000000;" parent="1" vertex="1">
                    <mxGeometry x="414" y="920" width="86" height="20" as="geometry"/>
                </mxCell>
                <mxCell id="49" value="&lt;span style=&quot;color: rgb(255 , 255 , 255)&quot;&gt;サムネクリックで編集ページに遷移&lt;br&gt;&lt;br&gt;表示列の切り替え：&lt;/span&gt;&lt;br style=&quot;color: rgb(255 , 255 , 255)&quot;&gt;&lt;font color=&quot;#ffffff&quot;&gt;リスト、タイル&lt;/font&gt;&lt;br&gt;&lt;font color=&quot;#ffffff&quot;&gt;表示する内容も変更される&lt;br&gt;&lt;br&gt;&lt;/font&gt;&lt;span style=&quot;color: rgb(255 , 255 , 255)&quot;&gt;常備&lt;br&gt;- サムネ&lt;br&gt;- タイトル&lt;br&gt;&lt;/span&gt;&lt;span style=&quot;color: rgb(255 , 255 , 255)&quot;&gt;-&amp;nbsp;&lt;/span&gt;&lt;span style=&quot;color: rgb(255 , 255 , 255)&quot;&gt;お気に入り数&lt;br&gt;&lt;/span&gt;&lt;span style=&quot;color: rgb(255 , 255 , 255)&quot;&gt;-&amp;nbsp;&lt;/span&gt;&lt;span style=&quot;color: rgb(255 , 255 , 255)&quot;&gt;お気に入りボタン&lt;br&gt;&lt;/span&gt;&lt;span style=&quot;color: rgb(255 , 255 , 255)&quot;&gt;リストだと以下の情報も出る&lt;br&gt;&lt;/span&gt;&lt;font color=&quot;#ffffff&quot;&gt;&lt;span style=&quot;text-align: center&quot;&gt;- 初回公開日&lt;/span&gt;&lt;br style=&quot;text-align: center&quot;&gt;&lt;/font&gt;&lt;span style=&quot;color: rgb(255 , 255 , 255) ; text-align: center&quot;&gt;-&amp;nbsp;&lt;/span&gt;&lt;font color=&quot;#ffffff&quot;&gt;&lt;span style=&quot;text-align: center&quot;&gt;更新日&lt;/span&gt;&lt;br style=&quot;text-align: center&quot;&gt;&lt;/font&gt;&lt;span style=&quot;color: rgb(255 , 255 , 255) ; text-align: center&quot;&gt;-&amp;nbsp;&lt;/span&gt;&lt;font color=&quot;#ffffff&quot;&gt;&lt;span style=&quot;text-align: center&quot;&gt;ページ数&lt;/span&gt;&lt;br style=&quot;text-align: center&quot;&gt;&lt;/font&gt;&lt;span style=&quot;color: rgb(255 , 255 , 255) ; text-align: center&quot;&gt;-&amp;nbsp;&lt;/span&gt;&lt;font color=&quot;#ffffff&quot;&gt;&lt;span style=&quot;text-align: center&quot;&gt;タグ&lt;/span&gt;&lt;/font&gt;&lt;span style=&quot;color: rgb(255 , 255 , 255)&quot;&gt;&lt;br&gt;- 前書き&lt;br&gt;&lt;/span&gt;&lt;br style=&quot;color: rgb(255 , 255 , 255)&quot;&gt;&lt;span style=&quot;color: rgb(255 , 255 , 255)&quot;&gt;サムネ、タイトル前書きクリックで作品に移動&lt;br&gt;&lt;/span&gt;&lt;span style=&quot;color: rgb(255 , 255 , 255)&quot;&gt;タグクリックで検索&lt;/span&gt;&lt;br style=&quot;color: rgb(255 , 255 , 255)&quot;&gt;&lt;span style=&quot;color: rgb(255 , 255 , 255)&quot;&gt;&lt;br&gt;&lt;/span&gt;&lt;font color=&quot;#ffffff&quot;&gt;ソート：&lt;br&gt;&lt;/font&gt;&lt;span style=&quot;color: rgb(255 , 255 , 255)&quot;&gt;- タイトル&lt;br&gt;&lt;/span&gt;&lt;span style=&quot;color: rgb(255 , 255 , 255)&quot;&gt;-&amp;nbsp;&lt;/span&gt;&lt;span style=&quot;color: rgb(255 , 255 , 255)&quot;&gt;作者名&lt;br&gt;&lt;/span&gt;&lt;span style=&quot;color: rgb(255 , 255 , 255)&quot;&gt;-&amp;nbsp;&lt;/span&gt;&lt;span style=&quot;color: rgb(255 , 255 , 255)&quot;&gt;お気に入り数&lt;br&gt;&lt;/span&gt;&lt;font color=&quot;#ffffff&quot;&gt;&lt;span style=&quot;text-align: center&quot;&gt;- 初回公開日&lt;/span&gt;&lt;br style=&quot;text-align: center&quot;&gt;&lt;/font&gt;&lt;span style=&quot;color: rgb(255 , 255 , 255) ; text-align: center&quot;&gt;-&amp;nbsp;&lt;/span&gt;&lt;font color=&quot;#ffffff&quot;&gt;&lt;span style=&quot;text-align: center&quot;&gt;更新日&lt;/span&gt;&lt;br style=&quot;text-align: center&quot;&gt;&lt;/font&gt;&lt;span style=&quot;color: rgb(255 , 255 , 255)&quot;&gt;- ページ数&lt;br&gt;&lt;/span&gt;&lt;font color=&quot;#ffffff&quot;&gt;&lt;br&gt;&lt;/font&gt;" style="rounded=1;whiteSpace=wrap;html=1;fontColor=#000000;align=left;" parent="1" vertex="1">
                    <mxGeometry x="560" y="880" width="310" height="450" as="geometry"/>
                </mxCell>
                <mxCell id="64" value="" style="rounded=0;whiteSpace=wrap;html=1;fontColor=#000000;" parent="1" vertex="1">
                    <mxGeometry x="120" y="1169" width="400" height="280" as="geometry"/>
                </mxCell>
                <mxCell id="68" value="作品サムネ" style="rounded=0;whiteSpace=wrap;html=1;fillColor=#b1ddf0;strokeColor=#10739e;fontColor=#000000;" parent="1" vertex="1">
                    <mxGeometry x="138" y="1269" width="80" height="80" as="geometry"/>
                </mxCell>
                <mxCell id="69" value="" style="rounded=0;whiteSpace=wrap;html=1;fillColor=#b1ddf0;strokeColor=#10739e;fontColor=#000000;" parent="1" vertex="1">
                    <mxGeometry x="322" y="1269" width="80" height="80" as="geometry"/>
                </mxCell>
                <mxCell id="76" value="表示設定" style="rounded=0;whiteSpace=wrap;html=1;fillColor=#b1ddf0;strokeColor=#10739e;fontColor=#000000;" parent="1" vertex="1">
                    <mxGeometry x="414" y="1239" width="86" height="20" as="geometry"/>
                </mxCell>
                <mxCell id="78" value="&lt;font color=&quot;#000000&quot;&gt;&lt;br&gt;&lt;/font&gt;" style="rounded=1;whiteSpace=wrap;html=1;fillColor=#fad7ac;strokeColor=#b46504;" parent="1" vertex="1">
                    <mxGeometry x="270" y="1040" width="220" height="80" as="geometry"/>
                </mxCell>
                <mxCell id="80" value="" style="rounded=0;whiteSpace=wrap;html=1;fillColor=#b1ddf0;strokeColor=#10739e;fontColor=#000000;" parent="1" vertex="1">
                    <mxGeometry x="168" y="1040" width="80" height="80" as="geometry"/>
                </mxCell>
                <mxCell id="81" value="" style="rounded=0;whiteSpace=wrap;html=1;fillColor=#b1ddf0;strokeColor=#10739e;fontColor=#000000;" parent="1" vertex="1">
                    <mxGeometry x="230" y="1269" width="80" height="80" as="geometry"/>
                </mxCell>
                <mxCell id="82" value="" style="rounded=0;whiteSpace=wrap;html=1;fillColor=#b1ddf0;strokeColor=#10739e;fontColor=#000000;" parent="1" vertex="1">
                    <mxGeometry x="414" y="1269" width="80" height="80" as="geometry"/>
                </mxCell>
                <mxCell id="83" value="&lt;font color=&quot;#000000&quot;&gt;タイトル&lt;br&gt;&lt;/font&gt;" style="rounded=1;whiteSpace=wrap;html=1;fillColor=#fad7ac;strokeColor=#b46504;" parent="1" vertex="1">
                    <mxGeometry x="138" y="1359" width="80" height="20" as="geometry"/>
                </mxCell>
                <mxCell id="84" value="&lt;font color=&quot;#000000&quot;&gt;&lt;br&gt;&lt;/font&gt;" style="rounded=1;whiteSpace=wrap;html=1;fillColor=#fad7ac;strokeColor=#b46504;" parent="1" vertex="1">
                    <mxGeometry x="230" y="1359" width="80" height="20" as="geometry"/>
                </mxCell>
                <mxCell id="85" value="&lt;font color=&quot;#000000&quot;&gt;&lt;br&gt;&lt;/font&gt;" style="rounded=1;whiteSpace=wrap;html=1;fillColor=#fad7ac;strokeColor=#b46504;" parent="1" vertex="1">
                    <mxGeometry x="322" y="1359" width="80" height="20" as="geometry"/>
                </mxCell>
                <mxCell id="86" value="&lt;font color=&quot;#000000&quot;&gt;&lt;br&gt;&lt;/font&gt;" style="rounded=1;whiteSpace=wrap;html=1;fillColor=#fad7ac;strokeColor=#b46504;" parent="1" vertex="1">
                    <mxGeometry x="414" y="1359" width="80" height="20" as="geometry"/>
                </mxCell>
                <mxCell id="87" value="" style="rounded=0;whiteSpace=wrap;html=1;fillColor=#b1ddf0;strokeColor=#10739e;fontColor=#000000;" parent="1" vertex="1">
                    <mxGeometry x="138" y="1389" width="80" height="80" as="geometry"/>
                </mxCell>
                <mxCell id="88" value="" style="rounded=0;whiteSpace=wrap;html=1;fillColor=#b1ddf0;strokeColor=#10739e;fontColor=#000000;" parent="1" vertex="1">
                    <mxGeometry x="322" y="1389" width="80" height="80" as="geometry"/>
                </mxCell>
                <mxCell id="89" value="" style="rounded=0;whiteSpace=wrap;html=1;fillColor=#b1ddf0;strokeColor=#10739e;fontColor=#000000;" parent="1" vertex="1">
                    <mxGeometry x="230" y="1389" width="80" height="80" as="geometry"/>
                </mxCell>
                <mxCell id="90" value="" style="rounded=0;whiteSpace=wrap;html=1;fillColor=#b1ddf0;strokeColor=#10739e;fontColor=#000000;" parent="1" vertex="1">
                    <mxGeometry x="414" y="1389" width="80" height="80" as="geometry"/>
                </mxCell>
                <mxCell id="92" value="&lt;font&gt;ユーザ画面&lt;/font&gt;" style="rounded=0;whiteSpace=wrap;html=1;fillColor=#f8cecc;strokeColor=#b85450;fontColor=#000000;" parent="1" vertex="1">
                    <mxGeometry x="40" y="-270" width="120" height="30" as="geometry"/>
                </mxCell>
                <mxCell id="112" value="&lt;font&gt;ユーザ名&lt;br&gt;&lt;/font&gt;" style="rounded=0;whiteSpace=wrap;html=1;fillColor=#d5e8d4;strokeColor=#82b366;fontColor=#000000;" parent="1" vertex="1">
                    <mxGeometry x="400" y="850" width="120" height="30" as="geometry"/>
                </mxCell>
                <mxCell id="116" value="アイコン" style="rounded=0;whiteSpace=wrap;html=1;fillColor=#b1ddf0;strokeColor=#10739e;fontColor=#000000;" parent="1" vertex="1">
                    <mxGeometry x="120" y="-175" width="80" height="80" as="geometry"/>
                </mxCell>
                <mxCell id="117" value="&lt;font color=&quot;#000000&quot;&gt;ユーザ名&lt;br&gt;メールアドレス&lt;br&gt;&lt;/font&gt;" style="rounded=1;whiteSpace=wrap;html=1;fillColor=#fad7ac;strokeColor=#b46504;" parent="1" vertex="1">
                    <mxGeometry x="218" y="-175" width="220" height="75" as="geometry"/>
                </mxCell>
                <mxCell id="125" value="&lt;font color=&quot;#000000&quot;&gt;読者機能&lt;/font&gt;" style="rounded=0;whiteSpace=wrap;html=1;fillColor=#b1ddf0;strokeColor=#10739e;" parent="1" vertex="1">
                    <mxGeometry x="120" y="40" width="120" height="30" as="geometry"/>
                </mxCell>
                <mxCell id="126" value="&lt;span style=&quot;color: rgb(0 , 0 , 0)&quot;&gt;お気に入り一覧&lt;/span&gt;" style="rounded=0;whiteSpace=wrap;html=1;fillColor=#b1ddf0;strokeColor=#10739e;" parent="1" vertex="1">
                    <mxGeometry x="144" y="120" width="306" height="30" as="geometry"/>
                </mxCell>
                <mxCell id="127" value="&lt;font color=&quot;#000000&quot;&gt;付箋一覧&lt;/font&gt;" style="rounded=0;whiteSpace=wrap;html=1;fillColor=#b1ddf0;strokeColor=#10739e;" parent="1" vertex="1">
                    <mxGeometry x="144" y="160" width="306" height="30" as="geometry"/>
                </mxCell>
                <mxCell id="128" value="&lt;font color=&quot;#000000&quot;&gt;感想一覧&lt;/font&gt;" style="rounded=0;whiteSpace=wrap;html=1;fillColor=#b1ddf0;strokeColor=#10739e;" parent="1" vertex="1">
                    <mxGeometry x="144" y="200" width="306" height="30" as="geometry"/>
                </mxCell>
                <mxCell id="129" value="&lt;font color=&quot;#000000&quot;&gt;　閲覧履歴　　　　　　　　　　　　　　　　〇〇件&lt;/font&gt;" style="rounded=0;whiteSpace=wrap;html=1;fillColor=#b1ddf0;strokeColor=#10739e;align=left;" parent="1" vertex="1">
                    <mxGeometry x="144" y="80" width="306" height="30" as="geometry"/>
                </mxCell>
                <mxCell id="131" value="&lt;font color=&quot;#000000&quot;&gt;ユーザ設定更新&lt;/font&gt;" style="rounded=0;whiteSpace=wrap;html=1;fillColor=#b1ddf0;strokeColor=#10739e;" parent="1" vertex="1">
                    <mxGeometry x="319" y="-130" width="122" height="30" as="geometry"/>
                </mxCell>
                <mxCell id="132" value="&lt;div style=&quot;text-align: left&quot;&gt;&lt;span style=&quot;color: rgb(255 , 255 , 255)&quot;&gt;ユーザ設定更新モーダル&lt;/span&gt;&lt;/div&gt;&lt;font color=&quot;#ffffff&quot;&gt;&lt;div style=&quot;text-align: left&quot;&gt;&lt;span&gt;- アイコンアップロード&lt;/span&gt;&lt;/div&gt;&lt;div style=&quot;text-align: left&quot;&gt;&lt;span&gt;- ユーザ名&lt;/span&gt;&lt;/div&gt;&lt;div style=&quot;text-align: left&quot;&gt;- メールアドレス&lt;/div&gt;&lt;div style=&quot;text-align: left&quot;&gt;&lt;br&gt;&lt;/div&gt;&lt;div style=&quot;text-align: left&quot;&gt;まとめて一括更新&lt;/div&gt;&lt;/font&gt;" style="rounded=1;whiteSpace=wrap;html=1;fontColor=#000000;" parent="1" vertex="1">
                    <mxGeometry x="520" y="-200" width="230" height="100" as="geometry"/>
                </mxCell>
                <mxCell id="133" value="&lt;div style=&quot;text-align: left&quot;&gt;&lt;font color=&quot;#ffffff&quot;&gt;クリックすると各一覧画面に移動&lt;/font&gt;&lt;/div&gt;&lt;div style=&quot;text-align: left&quot;&gt;&lt;font color=&quot;#ffffff&quot;&gt;リンク全てに件数が事前に出ている&lt;/font&gt;&lt;/div&gt;" style="rounded=1;whiteSpace=wrap;html=1;fontColor=#000000;" parent="1" vertex="1">
                    <mxGeometry x="520" y="30" width="230" height="190" as="geometry"/>
                </mxCell>
                <mxCell id="136" value="&lt;font color=&quot;#000000&quot;&gt;　動的小説&lt;/font&gt;" style="rounded=0;whiteSpace=wrap;html=1;fillColor=#b1ddf0;strokeColor=#10739e;align=left;" parent="1" vertex="1">
                    <mxGeometry x="120" y="1169" width="400" height="30" as="geometry"/>
                </mxCell>
                <mxCell id="137" value="&lt;font&gt;ユーザ名&lt;br&gt;&lt;/font&gt;" style="rounded=0;whiteSpace=wrap;html=1;fillColor=#d5e8d4;strokeColor=#82b366;fontColor=#000000;" parent="1" vertex="1">
                    <mxGeometry x="400" y="1169" width="120" height="30" as="geometry"/>
                </mxCell>
                <mxCell id="138" value="" style="rounded=0;whiteSpace=wrap;html=1;fontColor=#000000;" parent="1" vertex="1">
                    <mxGeometry x="118.5" y="1970" width="400" height="280" as="geometry"/>
                </mxCell>
                <mxCell id="139" value="&lt;font color=&quot;#000000&quot;&gt;　動的小説&lt;/font&gt;" style="rounded=0;whiteSpace=wrap;html=1;fillColor=#b1ddf0;strokeColor=#10739e;align=left;" parent="1" vertex="1">
                    <mxGeometry x="118.5" y="1970" width="400" height="30" as="geometry"/>
                </mxCell>
                <mxCell id="141" value="グループ" style="rounded=0;whiteSpace=wrap;html=1;fillColor=#b1ddf0;strokeColor=#10739e;fontColor=#000000;" parent="1" vertex="1">
                    <mxGeometry x="166.5" y="2070" width="80" height="80" as="geometry"/>
                </mxCell>
                <mxCell id="142" value="&lt;font color=&quot;#000000&quot;&gt;内容&lt;br&gt;&lt;/font&gt;" style="rounded=1;whiteSpace=wrap;html=1;fillColor=#fad7ac;strokeColor=#b46504;" parent="1" vertex="1">
                    <mxGeometry x="268.5" y="2070" width="220" height="80" as="geometry"/>
                </mxCell>
                <mxCell id="144" value="&lt;font color=&quot;#000000&quot;&gt;&lt;br&gt;&lt;/font&gt;" style="rounded=1;whiteSpace=wrap;html=1;fillColor=#fad7ac;strokeColor=#b46504;" parent="1" vertex="1">
                    <mxGeometry x="268.5" y="2160" width="220" height="80" as="geometry"/>
                </mxCell>
                <mxCell id="145" value="" style="rounded=0;whiteSpace=wrap;html=1;fillColor=#b1ddf0;strokeColor=#10739e;fontColor=#000000;" parent="1" vertex="1">
                    <mxGeometry x="166.5" y="2160" width="80" height="80" as="geometry"/>
                </mxCell>
                <mxCell id="146" value="&lt;font&gt;ユーザ名&lt;br&gt;&lt;/font&gt;" style="rounded=0;whiteSpace=wrap;html=1;fillColor=#d5e8d4;strokeColor=#82b366;fontColor=#000000;" parent="1" vertex="1">
                    <mxGeometry x="398.5" y="1970" width="120" height="30" as="geometry"/>
                </mxCell>
                <mxCell id="147" value="グループ登録画面" style="rounded=0;whiteSpace=wrap;html=1;fillColor=#f8cecc;strokeColor=#b85450;fontColor=#000000;" parent="1" vertex="1">
                    <mxGeometry x="38.5" y="1900" width="120" height="30" as="geometry"/>
                </mxCell>
                <mxCell id="149" value="&lt;font color=&quot;#ffffff&quot;&gt;閲覧、お気に入り、付箋、感想ページ&lt;br&gt;&lt;br&gt;リスト表示のみ&lt;br&gt;&lt;br&gt;内容情報&lt;br&gt;- グループ名&lt;br&gt;&lt;/font&gt;&lt;span style=&quot;color: rgb(255 , 255 , 255)&quot;&gt;- 立ち絵&lt;br&gt;- セリフ枠&lt;br&gt;- 文字フォント&lt;br&gt;- 背景画像&lt;br&gt;- 動画&lt;br&gt;- 新規作成日時&lt;br&gt;&lt;/span&gt;&lt;font color=&quot;#ffffff&quot;&gt;- 更新日時&lt;br&gt;&lt;br&gt;&lt;/font&gt;&lt;font color=&quot;#ffffff&quot;&gt;ソート：&lt;br&gt;&lt;/font&gt;&lt;span style=&quot;color: rgb(255 , 255 , 255)&quot;&gt;- タイトル&lt;br&gt;&lt;/span&gt;&lt;span style=&quot;color: rgb(255 , 255 , 255)&quot;&gt;-&amp;nbsp;&lt;/span&gt;&lt;span style=&quot;color: rgb(255 , 255 , 255)&quot;&gt;お気に入り数&lt;br&gt;&lt;/span&gt;&lt;font color=&quot;#ffffff&quot;&gt;&lt;span style=&quot;text-align: center&quot;&gt;- 初回公開日&lt;/span&gt;&lt;br style=&quot;text-align: center&quot;&gt;&lt;/font&gt;&lt;span style=&quot;color: rgb(255 , 255 , 255) ; text-align: center&quot;&gt;-&amp;nbsp;&lt;/span&gt;&lt;font color=&quot;#ffffff&quot;&gt;&lt;span style=&quot;text-align: center&quot;&gt;更新日&lt;/span&gt;&lt;br style=&quot;text-align: center&quot;&gt;&lt;/font&gt;&lt;span style=&quot;color: rgb(255 , 255 , 255)&quot;&gt;- ページ数&lt;/span&gt;&lt;font color=&quot;#ffffff&quot;&gt;&lt;br&gt;&lt;/font&gt;&lt;font color=&quot;#ffffff&quot;&gt;&lt;br&gt;&lt;/font&gt;" style="rounded=1;whiteSpace=wrap;html=1;fontColor=#000000;align=left;" parent="1" vertex="1">
                    <mxGeometry x="560" y="1920" width="310" height="340" as="geometry"/>
                </mxCell>
                <mxCell id="150" value="「作成作成」クリックで遷移" style="rounded=1;whiteSpace=wrap;html=1;" vertex="1" parent="1">
                    <mxGeometry x="110" y="700" width="120" height="60" as="geometry"/>
                </mxCell>
                <mxCell id="151" value="作成画面TOP" style="rounded=0;whiteSpace=wrap;html=1;fillColor=#f8cecc;strokeColor=#b85450;fontColor=#000000;" vertex="1" parent="1">
                    <mxGeometry x="50" y="810" width="120" height="30" as="geometry"/>
                </mxCell>
                <mxCell id="152" value="＋" style="ellipse;whiteSpace=wrap;html=1;aspect=fixed;" vertex="1" parent="1">
                    <mxGeometry x="190" y="970" width="40" height="40" as="geometry"/>
                </mxCell>
                <mxCell id="153" value="＋" style="ellipse;whiteSpace=wrap;html=1;aspect=fixed;" vertex="1" parent="1">
                    <mxGeometry x="158" y="1289" width="40" height="40" as="geometry"/>
                </mxCell>
                <mxCell id="157" value="" style="rounded=0;whiteSpace=wrap;html=1;fontColor=#000000;" vertex="1" parent="1">
                    <mxGeometry x="119.5" y="1560" width="400" height="280" as="geometry"/>
                </mxCell>
                <mxCell id="158" value="作品サムネ" style="rounded=0;whiteSpace=wrap;html=1;fillColor=#b1ddf0;strokeColor=#10739e;fontColor=#000000;" vertex="1" parent="1">
                    <mxGeometry x="137.5" y="1660" width="80" height="80" as="geometry"/>
                </mxCell>
                <mxCell id="159" value="" style="rounded=0;whiteSpace=wrap;html=1;fillColor=#b1ddf0;strokeColor=#10739e;fontColor=#000000;" vertex="1" parent="1">
                    <mxGeometry x="321.5" y="1660" width="80" height="80" as="geometry"/>
                </mxCell>
                <mxCell id="160" value="表示設定" style="rounded=0;whiteSpace=wrap;html=1;fillColor=#b1ddf0;strokeColor=#10739e;fontColor=#000000;" vertex="1" parent="1">
                    <mxGeometry x="413.5" y="1630" width="86" height="20" as="geometry"/>
                </mxCell>
                <mxCell id="161" value="" style="rounded=0;whiteSpace=wrap;html=1;fillColor=#b1ddf0;strokeColor=#10739e;fontColor=#000000;" vertex="1" parent="1">
                    <mxGeometry x="229.5" y="1660" width="80" height="80" as="geometry"/>
                </mxCell>
                <mxCell id="162" value="" style="rounded=0;whiteSpace=wrap;html=1;fillColor=#b1ddf0;strokeColor=#10739e;fontColor=#000000;" vertex="1" parent="1">
                    <mxGeometry x="413.5" y="1660" width="80" height="80" as="geometry"/>
                </mxCell>
                <mxCell id="163" value="&lt;font color=&quot;#000000&quot;&gt;タイトル&lt;br&gt;&lt;/font&gt;" style="rounded=1;whiteSpace=wrap;html=1;fillColor=#fad7ac;strokeColor=#b46504;" vertex="1" parent="1">
                    <mxGeometry x="137.5" y="1750" width="80" height="20" as="geometry"/>
                </mxCell>
                <mxCell id="164" value="&lt;font color=&quot;#000000&quot;&gt;&lt;br&gt;&lt;/font&gt;" style="rounded=1;whiteSpace=wrap;html=1;fillColor=#fad7ac;strokeColor=#b46504;" vertex="1" parent="1">
                    <mxGeometry x="229.5" y="1750" width="80" height="20" as="geometry"/>
                </mxCell>
                <mxCell id="165" value="&lt;font color=&quot;#000000&quot;&gt;&lt;br&gt;&lt;/font&gt;" style="rounded=1;whiteSpace=wrap;html=1;fillColor=#fad7ac;strokeColor=#b46504;" vertex="1" parent="1">
                    <mxGeometry x="321.5" y="1750" width="80" height="20" as="geometry"/>
                </mxCell>
                <mxCell id="166" value="&lt;font color=&quot;#000000&quot;&gt;&lt;br&gt;&lt;/font&gt;" style="rounded=1;whiteSpace=wrap;html=1;fillColor=#fad7ac;strokeColor=#b46504;" vertex="1" parent="1">
                    <mxGeometry x="413.5" y="1750" width="80" height="20" as="geometry"/>
                </mxCell>
                <mxCell id="167" value="" style="rounded=0;whiteSpace=wrap;html=1;fillColor=#b1ddf0;strokeColor=#10739e;fontColor=#000000;" vertex="1" parent="1">
                    <mxGeometry x="137.5" y="1780" width="80" height="80" as="geometry"/>
                </mxCell>
                <mxCell id="168" value="" style="rounded=0;whiteSpace=wrap;html=1;fillColor=#b1ddf0;strokeColor=#10739e;fontColor=#000000;" vertex="1" parent="1">
                    <mxGeometry x="321.5" y="1780" width="80" height="80" as="geometry"/>
                </mxCell>
                <mxCell id="169" value="" style="rounded=0;whiteSpace=wrap;html=1;fillColor=#b1ddf0;strokeColor=#10739e;fontColor=#000000;" vertex="1" parent="1">
                    <mxGeometry x="229.5" y="1780" width="80" height="80" as="geometry"/>
                </mxCell>
                <mxCell id="170" value="" style="rounded=0;whiteSpace=wrap;html=1;fillColor=#b1ddf0;strokeColor=#10739e;fontColor=#000000;" vertex="1" parent="1">
                    <mxGeometry x="413.5" y="1780" width="80" height="80" as="geometry"/>
                </mxCell>
                <mxCell id="171" value="&lt;font color=&quot;#000000&quot;&gt;　動的小説&lt;/font&gt;" style="rounded=0;whiteSpace=wrap;html=1;fillColor=#b1ddf0;strokeColor=#10739e;align=left;" vertex="1" parent="1">
                    <mxGeometry x="119.5" y="1560" width="400" height="30" as="geometry"/>
                </mxCell>
                <mxCell id="172" value="&lt;font&gt;ユーザ名&lt;br&gt;&lt;/font&gt;" style="rounded=0;whiteSpace=wrap;html=1;fillColor=#d5e8d4;strokeColor=#82b366;fontColor=#000000;" vertex="1" parent="1">
                    <mxGeometry x="399.5" y="1560" width="120" height="30" as="geometry"/>
                </mxCell>
                <mxCell id="174" value="＋" style="ellipse;whiteSpace=wrap;html=1;aspect=fixed;" vertex="1" parent="1">
                    <mxGeometry x="157.5" y="1680" width="40" height="40" as="geometry"/>
                </mxCell>
                <mxCell id="175" value="画像" style="rounded=0;whiteSpace=wrap;html=1;fillColor=#b1ddf0;strokeColor=#10739e;fontColor=#000000;" vertex="1" parent="1">
                    <mxGeometry x="155.5" y="1630" width="86" height="20" as="geometry"/>
                </mxCell>
                <mxCell id="176" value="動画" style="rounded=0;whiteSpace=wrap;html=1;fillColor=#b1ddf0;strokeColor=#10739e;fontColor=#000000;" vertex="1" parent="1">
                    <mxGeometry x="241.5" y="1630" width="86" height="20" as="geometry"/>
                </mxCell>
                <mxCell id="177" value="" style="rounded=0;whiteSpace=wrap;html=1;fillColor=#b1ddf0;strokeColor=#10739e;fontColor=#000000;" vertex="1" parent="1">
                    <mxGeometry x="327.5" y="1630" width="86" height="20" as="geometry"/>
                </mxCell>
                <mxCell id="178" value="パーツ登録画面" style="rounded=0;whiteSpace=wrap;html=1;fillColor=#f8cecc;strokeColor=#b85450;fontColor=#000000;" vertex="1" parent="1">
                    <mxGeometry x="39.5" y="1520" width="120" height="30" as="geometry"/>
                </mxCell>
                <mxCell id="179" value="&lt;font color=&quot;#ffffff&quot;&gt;ソート：&lt;br&gt;&lt;/font&gt;&lt;span style=&quot;color: rgb(255 , 255 , 255)&quot;&gt;- 名前&lt;/span&gt;&lt;span style=&quot;color: rgb(255 , 255 , 255)&quot;&gt;&lt;br&gt;&lt;/span&gt;&lt;font color=&quot;#ffffff&quot;&gt;&lt;span style=&quot;text-align: center&quot;&gt;- 登録日&lt;/span&gt;&lt;br style=&quot;text-align: center&quot;&gt;&lt;/font&gt;&lt;span style=&quot;color: rgb(255 , 255 , 255) ; text-align: center&quot;&gt;-&amp;nbsp;&lt;/span&gt;&lt;font color=&quot;#ffffff&quot;&gt;&lt;span style=&quot;text-align: center&quot;&gt;更新日&lt;br&gt;&lt;/span&gt;&lt;/font&gt;&lt;font color=&quot;#ffffff&quot;&gt;&lt;br&gt;サムネクリック&lt;br&gt;詳細表示モーダル表示&lt;br&gt;- 所属グループ一覧&lt;br&gt;- 登録削除ボタン&lt;br&gt;→使用中の作品からも削除される&lt;br&gt;→どこで使用中なのかをアラート&lt;br&gt;&lt;/font&gt;&lt;span style=&quot;color: rgb(255 , 255 , 255)&quot;&gt;　※暫定対応　本来は削除しないでも残したい&lt;/span&gt;&lt;font color=&quot;#ffffff&quot;&gt;&lt;br&gt;&lt;br&gt;「＋」クリック&lt;br&gt;アップロードモーダル表示&lt;br&gt;種別選択&lt;br&gt;&lt;/font&gt;&lt;font color=&quot;#ffffff&quot;&gt;- グループ名&lt;br&gt;&lt;/font&gt;&lt;span style=&quot;color: rgb(255 , 255 , 255)&quot;&gt;- 立ち絵&lt;br&gt;- セリフ枠&lt;br&gt;- 文字フォント&lt;br&gt;- 背景画像&lt;br&gt;- 動画&lt;/span&gt;&lt;font color=&quot;#ffffff&quot;&gt;&lt;br&gt;アップロード、名前が必須&lt;br&gt;&lt;br&gt;&lt;/font&gt;" style="rounded=1;whiteSpace=wrap;html=1;fontColor=#000000;align=left;" vertex="1" parent="1">
                    <mxGeometry x="560" y="1520" width="310" height="370" as="geometry"/>
                </mxCell>
                <mxCell id="180" value="表示設定" style="rounded=0;whiteSpace=wrap;html=1;fillColor=#b1ddf0;strokeColor=#10739e;fontColor=#000000;" vertex="1" parent="1">
                    <mxGeometry x="415.5" y="2030" width="86" height="20" as="geometry"/>
                </mxCell>
                <mxCell id="181" value="" style="rounded=0;whiteSpace=wrap;html=1;fontColor=#000000;" vertex="1" parent="1">
                    <mxGeometry x="867" y="-220" width="400" height="770" as="geometry"/>
                </mxCell>
                <mxCell id="182" value="&lt;font color=&quot;#000000&quot;&gt;　動的小説&lt;/font&gt;" style="rounded=0;whiteSpace=wrap;html=1;fillColor=#b1ddf0;strokeColor=#10739e;align=left;" vertex="1" parent="1">
                    <mxGeometry x="867" y="-220" width="400" height="30" as="geometry"/>
                </mxCell>
                <mxCell id="183" value="&lt;font&gt;ユーザ名&lt;br&gt;&lt;/font&gt;" style="rounded=0;whiteSpace=wrap;html=1;fillColor=#d5e8d4;strokeColor=#82b366;fontColor=#000000;" vertex="1" parent="1">
                    <mxGeometry x="1147" y="-220" width="120" height="30" as="geometry"/>
                </mxCell>
                <mxCell id="184" value="&lt;font color=&quot;#000000&quot;&gt;クリエイター系機能&lt;/font&gt;" style="rounded=0;whiteSpace=wrap;html=1;fillColor=#b1ddf0;strokeColor=#10739e;" vertex="1" parent="1">
                    <mxGeometry x="907" y="240" width="120" height="30" as="geometry"/>
                </mxCell>
                <mxCell id="185" value="&lt;font color=&quot;#000000&quot;&gt;パーツ登録&lt;/font&gt;" style="rounded=0;whiteSpace=wrap;html=1;fillColor=#b1ddf0;strokeColor=#10739e;" vertex="1" parent="1">
                    <mxGeometry x="931" y="330" width="306" height="30" as="geometry"/>
                </mxCell>
                <mxCell id="186" value="&lt;font color=&quot;#000000&quot;&gt;グループ編集&lt;/font&gt;" style="rounded=0;whiteSpace=wrap;html=1;fillColor=#b1ddf0;strokeColor=#10739e;" vertex="1" parent="1">
                    <mxGeometry x="931" y="370" width="306" height="30" as="geometry"/>
                </mxCell>
                <mxCell id="187" value="&lt;font color=&quot;#000000&quot;&gt;パレット追加&lt;/font&gt;" style="rounded=0;whiteSpace=wrap;html=1;fillColor=#b1ddf0;strokeColor=#10739e;" vertex="1" parent="1">
                    <mxGeometry x="931" y="410" width="306" height="30" as="geometry"/>
                </mxCell>
                <mxCell id="188" value="&lt;font color=&quot;#000000&quot;&gt;作品作成&lt;/font&gt;" style="rounded=0;whiteSpace=wrap;html=1;fillColor=#b1ddf0;strokeColor=#10739e;" vertex="1" parent="1">
                    <mxGeometry x="931" y="290" width="306" height="30" as="geometry"/>
                </mxCell>
                <mxCell id="189" value="&lt;font&gt;ユーザ画面&lt;/font&gt;" style="rounded=0;whiteSpace=wrap;html=1;fillColor=#f8cecc;strokeColor=#b85450;fontColor=#000000;" vertex="1" parent="1">
                    <mxGeometry x="827" y="-270" width="120" height="30" as="geometry"/>
                </mxCell>
                <mxCell id="190" value="アイコン" style="rounded=0;whiteSpace=wrap;html=1;fillColor=#b1ddf0;strokeColor=#10739e;fontColor=#000000;" vertex="1" parent="1">
                    <mxGeometry x="907" y="-175" width="80" height="80" as="geometry"/>
                </mxCell>
                <mxCell id="191" value="&lt;font color=&quot;#000000&quot;&gt;ユーザ名&lt;br&gt;メールアドレス&lt;br&gt;&lt;/font&gt;" style="rounded=1;whiteSpace=wrap;html=1;fillColor=#fad7ac;strokeColor=#b46504;" vertex="1" parent="1">
                    <mxGeometry x="1005" y="-175" width="220" height="75" as="geometry"/>
                </mxCell>
                <mxCell id="192" value="&lt;font color=&quot;#000000&quot;&gt;読者機能&lt;/font&gt;" style="rounded=0;whiteSpace=wrap;html=1;fillColor=#b1ddf0;strokeColor=#10739e;" vertex="1" parent="1">
                    <mxGeometry x="907" y="40" width="120" height="30" as="geometry"/>
                </mxCell>
                <mxCell id="193" value="&lt;span style=&quot;color: rgb(0 , 0 , 0)&quot;&gt;お気に入り一覧&lt;/span&gt;" style="rounded=0;whiteSpace=wrap;html=1;fillColor=#b1ddf0;strokeColor=#10739e;" vertex="1" parent="1">
                    <mxGeometry x="931" y="120" width="306" height="30" as="geometry"/>
                </mxCell>
                <mxCell id="194" value="&lt;font color=&quot;#000000&quot;&gt;付箋一覧&lt;/font&gt;" style="rounded=0;whiteSpace=wrap;html=1;fillColor=#b1ddf0;strokeColor=#10739e;" vertex="1" parent="1">
                    <mxGeometry x="931" y="160" width="306" height="30" as="geometry"/>
                </mxCell>
                <mxCell id="195" value="&lt;font color=&quot;#000000&quot;&gt;感想一覧&lt;/font&gt;" style="rounded=0;whiteSpace=wrap;html=1;fillColor=#b1ddf0;strokeColor=#10739e;" vertex="1" parent="1">
                    <mxGeometry x="931" y="200" width="306" height="30" as="geometry"/>
                </mxCell>
                <mxCell id="196" value="&lt;font color=&quot;#000000&quot;&gt;　閲覧履歴　　　　　　　　　　　　　　　　〇〇件&lt;/font&gt;" style="rounded=0;whiteSpace=wrap;html=1;fillColor=#b1ddf0;strokeColor=#10739e;align=left;" vertex="1" parent="1">
                    <mxGeometry x="931" y="80" width="306" height="30" as="geometry"/>
                </mxCell>
                <mxCell id="197" value="&lt;font color=&quot;#000000&quot;&gt;ユーザ設定更新&lt;/font&gt;" style="rounded=0;whiteSpace=wrap;html=1;fillColor=#b1ddf0;strokeColor=#10739e;" vertex="1" parent="1">
                    <mxGeometry x="1106" y="-130" width="122" height="30" as="geometry"/>
                </mxCell>
                <mxCell id="198" value="&lt;div style=&quot;text-align: left&quot;&gt;&lt;span style=&quot;color: rgb(255 , 255 , 255)&quot;&gt;ユーザ設定更新モーダル&lt;/span&gt;&lt;/div&gt;&lt;font color=&quot;#ffffff&quot;&gt;&lt;div style=&quot;text-align: left&quot;&gt;&lt;span&gt;- アイコンアップロード&lt;/span&gt;&lt;/div&gt;&lt;div style=&quot;text-align: left&quot;&gt;&lt;span&gt;- ユーザ名&lt;/span&gt;&lt;/div&gt;&lt;div style=&quot;text-align: left&quot;&gt;- メールアドレス&lt;/div&gt;&lt;div style=&quot;text-align: left&quot;&gt;&lt;br&gt;&lt;/div&gt;&lt;div style=&quot;text-align: left&quot;&gt;まとめて一括更新&lt;/div&gt;&lt;/font&gt;" style="rounded=1;whiteSpace=wrap;html=1;fontColor=#000000;" vertex="1" parent="1">
                    <mxGeometry x="1307" y="-200" width="230" height="100" as="geometry"/>
                </mxCell>
                <mxCell id="199" value="&lt;div style=&quot;text-align: left&quot;&gt;&lt;font color=&quot;#ffffff&quot;&gt;クリックすると各一覧画面に移動&lt;/font&gt;&lt;/div&gt;&lt;div style=&quot;text-align: left&quot;&gt;&lt;font color=&quot;#ffffff&quot;&gt;リンク全てに件数が事前に出ている&lt;/font&gt;&lt;/div&gt;" style="rounded=1;whiteSpace=wrap;html=1;fontColor=#000000;" vertex="1" parent="1">
                    <mxGeometry x="1307" y="30" width="230" height="190" as="geometry"/>
                </mxCell>
            </root>
        </mxGraphModel>
    </diagram>
</mxfile>
